<?xml version="1.0" standalone="no"?>
<!DOCTYPE svg PUBLIC "-//W3C//DTD SVG 20010904//EN"
 "http://www.w3.org/TR/2001/REC-SVG-20010904/DTD/svg10.dtd">
<svg version="1.0" xmlns="http://www.w3.org/2000/svg"
 width="512.000000pt" height="512.000000pt" viewBox="0 0 512.000000 512.000000"
 preserveAspectRatio="xMidYMid meet">

<g transform="translate(0.000000,512.000000) scale(0.100000,-0.100000)"
fill="#000000" stroke="none">
<path d="M1365 5113 c-91 -8 -261 -46 -357 -79 -369 -128 -670 -391 -843 -739
-92 -185 -131 -317 -155 -520 -14 -124 -14 -2302 1 -2433 45 -418 258 -792
596 -1046 157 -118 385 -221 574 -260 163 -33 255 -36 1386 -36 1228 0 1250 1
1453 55 321 87 625 299 819 571 79 112 182 321 216 439 61 215 58 144 62 1420
3 835 1 1203 -7 1285 -35 347 -184 662 -431 909 -242 243 -556 393 -901 430
-90 10 -2308 13 -2413 4z m1287 -1095 c13 -29 1522 -2758 1600 -2895 l29 -53
-398 0 -398 1 -435 787 c-239 433 -537 970 -662 1194 l-227 407 162 295 162
295 76 1 c75 0 75 0 91 -32z m-539 -1372 l197 -353 -337 -611 -338 -611 -398
-1 -398 0 43 78 c504 915 1024 1851 1028 1852 4 0 95 -159 203 -354z"/>
</g>
</svg>
